PathFileType	4	(X/Y/Z)	/Users/niels/Desktop/University/Third Semester/Perception and Action/Exam/Gymnastics Motion Tracking/Code for Gym Tracking/Scripts/Analyzed Data/Start Salto/st_salto_bad_id10_2_Sports2D/st_salto_bad_id10_2_Sports2D_px_person00.trc
DataRate	CameraRate	NumFrames	NumMarkers	Units	OrigDataRate	OrigDataStartFrame	OrigNumFrames
29.80392156862745	29.80392156862745	11	22	m	29.80392156862745	0	153
Frame#	Time	Hip			RHip			RKnee			RAnkle			RBigToe			RSmallToe			RHeel			LHip			LKnee			LAnkle			LBigToe			LSmallToe			LHeel			Neck			Head			Nose			RShoulder			RElbow			RWrist			LShoulder			LElbow			LWrist		
		X1	Y1	Z1	X2	Y2	Z2	X3	Y3	Z3	X4	Y4	Z4	X5	Y5	Z5	X6	Y6	Z6	X7	Y7	Z7	X8	Y8	Z8	X9	Y9	Z9	X10	Y10	Z10	X11	Y11	Z11	X12	Y12	Z12	X13	Y13	Z13	X14	Y14	Z14	X15	Y15	Z15	X16	Y16	Z16	X17	Y17	Z17	X18	Y18	Z18	X19	Y19	Z19	X20	Y20	Z20	X21	Y21	Z21	X22	Y22	Z22
0	0.0	0.11308486194311825	-0.4919811527524989	0.0	0.10099646889163537	-0.500585736733942	0.0	0.19233597234069022	-0.5937528497876627	0.0	0.14752988525328614	-0.7162210548345884	0.0	0.2010098303923203	-0.766310163973513	0.0	0.18549270051454855	-0.7663085154496212	0.0	0.1302748941934618	-0.7334731175778518	0.0	0.12516668157463998	-0.502309452096856	0.0	0.15267085812491546	-0.6316930138149803	0.0	0.021636210855630902	-0.6541195381396333	0.0	-0.0007763983171819636	-0.7162878754130436	0.0	-0.0007626041589639515	-0.7076642999421194	0.0	0.0026732624126796084	-0.6455002646916453	0.0	0.1235766055847163	-0.3178574651117172	0.0	0.12711556596345602	-0.24204871657761096	0.0	0.15983733483758497	-0.28341414999457143	0.0	0.08388191843125478	-0.3350899368849093	0.0	0.023495044613528266	-0.3766564901221101	0.0	0.01504408444973409	-0.388867742668241	0.0	0.15293830472246198	-0.3454488127310696	0.0	0.19088932800704814	-0.38531219900863917	0.0	0.26000936719319667	-0.3664078640217846	0.0
1	0.03355263157894737	0.1576390328405883	-0.4880230327706208	0.0	0.14393361314510572	-0.4926846508420616	0.0	0.23648892607084038	-0.5913673268757534	0.0	0.193644924449766	-0.7176751891419961	0.0	0.24538721163184524	-0.7620184698845782	0.0	0.23050312672791884	-0.7628159933057008	0.0	0.1769977239476303	-0.7351217674195148	0.0	0.17065807750604295	-0.4942862016598031	0.0	0.21911053395165778	-0.6156294323048848	0.0	0.09950206205743765	-0.6556048621993625	0.0	0.08427286348209982	-0.7138808064806399	0.0	0.0838781359658277	-0.7066372675816414	0.0	0.07939117527392976	-0.6515941756354975	0.0	0.17459753874358042	-0.3186314188244424	0.0	0.18772465796478155	-0.2388307211570018	0.0	0.21381543946468773	-0.28406212594819896	0.0	0.13943375661383575	-0.3319942637534083	0.0	0.08840514586356751	-0.3802635490045535	0.0	0.09580514708560887	-0.40781248783994317	0.0	0.19996765076772854	-0.3436621796683759	0.0	0.23890728352827395	-0.3821162584506401	0.0	0.31012924633101163	-0.36651926465736206	0.0
2	0.06710526315789474	0.20230709593991908	-0.4859907640828243	0.0	0.18731501079594828	-0.4875391942230398	0.0	0.28136053716658643	-0.590090043317392	0.0	0.24221497269134365	-0.7197323965771284	0.0	0.29294351356176646	-0.7583461058961641	0.0	0.2786447597407027	-0.7599743188345781	0.0	0.22642508429733382	-0.7375829789490675	0.0	0.216479567727044	-0.4887389748326573	0.0	0.28425522923962787	-0.601978838104826	0.0	0.17917776873692506	-0.6602597772288634	0.0	0.17293539745628858	-0.7134005160725606	0.0	0.1716455187763619	-0.7074754845842692	0.0	0.15880832371675965	-0.6612624652040561	0.0	0.2265776590900967	-0.3209924337927005	0.0	0.2479508431502297	-0.23803347357863938	0.0	0.26846803105791056	-0.28655924391642057	0.0	0.1954332912874963	-0.3311235449121362	0.0	0.15641823422329906	-0.38499577761497655	0.0	0.17963749824340602	-0.424820721066576	0.0	0.2483511064307601	-0.34347560597707294	0.0	0.288453752798939	-0.3801067099766859	0.0	0.36131268925598065	-0.36725689610911477	0.0
3	0.10065789473684211	0.24720584204082158	-0.4873621494354192	0.0	0.2314201301183418	-0.4871101286193101	0.0	0.32741320265696605	-0.5911081612188601	0.0	0.29482226075809204	-0.7231355316299836	0.0	0.3454896677850088	-0.7560388808199962	0.0	0.3316708352650422	-0.758536856434709	0.0	0.28034687068025044	-0.7415951383901432	0.0	0.2627623078345433	-0.4874846833168143	0.0	0.3462510905043868	-0.5931179012649199	0.0	0.261018807006271	-0.6700186795029454	0.0	0.26625434670933573	-0.7162353465088661	0.0	0.26356142037261004	-0.7114942440908426	0.0	0.24193382333569238	-0.6763809057564518	0.0	0.27972653754334836	-0.32626667528800873	0.0	0.3075367384394386	-0.2415085183225342	0.0	0.3238136743474521	-0.2925249086926853	0.0	0.2518725951631371	-0.33416387351515814	0.0	0.22884027543475374	-0.39146561103957683	0.0	0.26735825575298533	-0.43784579571325144	0.0	0.2984583841896745	-0.3460825765158309	0.0	0.340285059654555	-0.3799629589797447	0.0	0.4138376648955153	-0.3686672576369806	0.0
4	0.13421052631578947	0.2924327294274134	-0.4929436131667273	0.0	0.2764037646786089	-0.49220381463029794	0.0	0.3747092951393812	-0.5955250126564899	0.0	0.35184021656360004	-0.7287707239862515	0.0	0.4032430939337628	-0.756031055386621	0.0	0.3897735511290654	-0.759417806548554	0.0	0.33915482971077837	-0.7478418583913246	0.0	0.3093666713343735	-0.49139199501575476	0.0	0.40353074114896664	-0.5909263616260455	0.0	0.34352025276615694	-0.6850710635682996	0.0	0.3620689129011847	-0.7230083301905158	0.0	0.35792870225940226	-0.7191803091694295	0.0	0.3273997251942956	-0.6966004491897514	0.0	0.33347588586418303	-0.3352423037235071	0.0	0.3661486344798075	-0.2501900423024661	0.0	0.3792198407924213	-0.3028788435114556	0.0	0.30833577350855207	-0.34192279452430385	0.0	0.3047162234693023	-0.3993848387781421	0.0	0.3569994723836997	-0.4449092317935779	0.0	0.3495705068136995	-0.35217913854193134	0.0	0.3940800321709457	-0.38175301676224105	0.0	0.4669293156459973	-0.37011392441654795	0.0
5	0.16776315789473684	0.33850860147821843	-0.5028907100492309	0.0	0.3228888401787882	-0.5026389052125303	0.0	0.42311402611817606	-0.6042138580539548	0.0	0.4123458671144103	-0.7376300736174602	0.0	0.4649600853892265	-0.7595163327567732	0.0	0.45177556133793023	-0.7637756299328393	0.0	0.40162536838613605	-0.7571233394624997	0.0	0.35640598929954914	-0.5005008331567201	0.0	0.455934589289666	-0.5963432012750127	0.0	0.4236264257140396	-0.7043812880774166	0.0	0.4555510125504966	-0.7337611723873027	0.0	0.45040915731303416	-0.7304696275617866	0.0	0.41153065543120493	-0.7201898761955345	0.0	0.38731187081388985	-0.3478983778538342	0.0	0.4236791015711961	-0.2639291574297657	0.0	0.4342463749330794	-0.3173707326856526	0.0	0.3647079787758999	-0.35418827979619644	0.0	0.38202588209114235	-0.407471181256854	0.0	0.4449931228586785	-0.44427988440820676	0.0	0.40081085374568276	-0.3618889746506817	0.0	0.4490900506677742	-0.38501118133143364	0.0	0.5194189730634722	-0.370450789831023	0.0
6	0.20131578947368423	0.38624960615522236	-0.5165991556861066	0.0	0.3718092008157512	-0.5174193609983592	0.0	0.4722168046289947	-0.6175242664759275	0.0	0.47382032528768414	-0.7504349114131151	0.0	0.5276861521675056	-0.7676485144485274	0.0	0.5148368426771073	-0.7726968351498611	0.0	0.4647327976293493	-0.7701082447591232	0.0	0.40428711890241265	-0.5140900137380476	0.0	0.5042953113816604	-0.6090406984884829	0.0	0.4971792939847261	-0.7265815496755751	0.0	0.5402915021391086	-0.7483759355296815	0.0	0.5347046717918728	-0.7452803153599868	0.0	0.48899525704288915	-0.7453051418941988	0.0	0.44093731304412453	-0.3632138494013261	0.0	0.480351490722295	-0.2814920213058848	0.0	0.4887788130077942	-0.3345867767922529	0.0	0.42112953997406855	-0.36972075727657855	0.0	0.45855563128315535	-0.4139302019315492	0.0	0.5273292071384026	-0.4350734970104374	0.0	0.45151482336664966	-0.3744805997014845	0.0	0.5044249928635127	-0.3888122133682906	0.0	0.5701283035695012	-0.3684664700135109	0.0
7	0.2348684210526316	0.43611500318600194	-0.5324027453631758	0.0	0.4236437866705354	-0.5345648209112797	0.0	0.5209696801208089	-0.6346680881459665	0.0	0.5320199023020981	-0.7668674676714302	0.0	0.5865999125951554	-0.7807601882930459	0.0	0.5741634463074894	-0.7863737466164928	0.0	0.523802118533969	-0.7865054336750152	0.0	0.4531983326558769	-0.5304530225745109	0.0	0.5491123065403677	-0.6271791760634168	0.0	0.559643290047976	-0.7503182020167098	0.0	0.610029589085062	-0.7667010335071053	0.0	0.6043633208190679	-0.7635625336658458	0.0	0.5540792739094723	-0.7705287174360358	0.0	0.49393528794866226	-0.3790884358102957	0.0	0.5364199631167653	-0.300665184257544	0.0	0.5425906339812699	-0.35226640718448965	0.0	0.4775109270886819	-0.3862122060946008	0.0	0.5322168134264526	-0.41712015413159514	0.0	0.6006849466027485	-0.41803786528941855	0.0	0.5010909741470344	-0.38807052661249125	0.0	0.5590197604548997	-0.3917777778394719	0.0	0.6180491413395629	-0.36346017406595366	0.0
8	0.26842105263157895	0.48763052367630394	-0.5474765819521119	0.0	0.4777733006076891	-0.550941961492293	0.0	0.5674745610270395	-0.6531533771024228	0.0	0.5819530097408416	-0.7848442089354368	0.0	0.6359837234964415	-0.7974736269284641	0.0	0.6239745352194428	-0.8032494367002502	0.0	0.5736674589466005	-0.8042811932319137	0.0	0.5026269446637481	-0.5466604702396624	0.0	0.589774382973721	-0.6473806025684098	0.0	0.6074590039046556	-0.7735910989561877	0.0	0.6606455013047091	-0.7876105563724879	0.0	0.6550355573511691	-0.7842692580175568	0.0	0.6025076277346676	-0.7941084085956052	0.0	0.5458510073598266	-0.3926098356256788	0.0	0.5919953943819568	-0.3184946171662622	0.0	0.5953833752406882	-0.3676483139377607	0.0	0.5334449061366171	-0.4004415645530195	0.0	0.6014509112923637	-0.4160857464284191	0.0	0.663898998314814	-0.3957751009372744	0.0	0.5492629737533035	-0.39980296985851643	0.0	0.6121272352194442	-0.39245447509161135	0.0	0.6631645129381157	-0.3556814544233568	0.0
9	0.30197368421052634	0.5392599524600321	-0.5581850112549182	0.0	0.5323438808691401	-0.5625527118165976	0.0	0.609373651498447	-0.6688954391750568	0.0	0.6200191477130742	-0.8004706219736565	0.0	0.6716799102092955	-0.8144817049137435	0.0	0.6600825218147567	-0.8199014325737525	0.0	0.6108069648095575	-0.8196201956325281	0.0	0.5512800821925634	-0.5587503203919261	0.0	0.6249304594267909	-0.66510400962448	0.0	0.6396680759315084	-0.7930132867172611	0.0	0.6917352404137546	-0.8079791317558118	0.0	0.6861744053026705	-0.8043427155677115	0.0	0.6332898780511731	-0.8130010111114879	0.0	0.5967018698024078	-0.400779636067528	0.0	0.6474507071331356	-0.3319934118928771	0.0	0.6474560300094275	-0.37807290426203716	0.0	0.5885689996943846	-0.4089710039658314	0.0	0.6657557127470004	-0.4109271435559005	0.0	0.7191068060004435	-0.37215785692883635	0.0	0.5966321898134046	-0.40662236103373517	0.0	0.6641154510150277	-0.3901800164895362	0.0	0.7075119387419886	-0.34641087680935967	0.0
10	0.3355263157894737	0.5886161753776166	-0.5608655874935129	0.0	0.5844855535149012	-0.5654045222642843	0.0	0.6445562440115622	-0.677254524727235	0.0	0.6455985879663437	-0.8090449147355133	0.0	0.6932100319462372	-0.8273986017436502	0.0	0.6820239099814278	-0.8319739634313743	0.0	0.6348499144482423	-0.8278749009125491	0.0	0.5973145640573051	-0.5625724321649663	0.0	0.6534597153221723	-0.6754865622268496	0.0	0.658520143540168	-0.8042710969244784	0.0	0.7067809226867791	-0.8232552079808763	0.0	0.7013175252541181	-0.8192866233848878	0.0	0.6492921374374325	-0.8232255499315987	0.0	0.6469159460186592	-0.40142333823304177	0.0	0.7035031854125112	-0.3391932220076257	0.0	0.6996642340588727	-0.38182942277865833	0.0	0.6425975747069415	-0.4092142029003592	0.0	0.7254015967915621	-0.40284462728884785	0.0	0.7708336237828399	-0.35155261884721634	0.0	0.6444193122177728	-0.4062365440367021	0.0	0.7161064753255795	-0.3856732445364096	0.0	0.7545729291638763	-0.33788705187054463	0.0
